<svg xmlns="http://www.w3.org/2000/svg" viewBox="0 0 1024 1024">
<path d="M 757 620 L 756 621 L 753 621 L 746 627 L 744 631 L 744 643 L 748 648 L 748 649 L 749 649 L 752 652 L 762 654 L 763 653 L 769 652 L 774 648 L 777 642 L 777 631 L 775 627 L 771 623 L 767 621 L 765 621 L 764 620 Z M 574 604 L 573 605 L 570 605 L 568 606 L 563 611 L 563 613 L 562 614 L 562 643 L 563 644 L 563 646 L 567 650 L 571 652 L 577 653 L 578 652 L 581 652 L 583 651 L 585 649 L 586 649 L 589 645 L 589 613 L 588 611 L 583 606 L 581 605 L 578 605 L 577 604 Z M 621 573 L 617 575 L 615 577 L 613 581 L 613 591 L 616 597 L 616 599 L 618 602 L 618 604 L 621 610 L 621 612 L 626 622 L 626 624 L 629 630 L 629 632 L 632 637 L 633 642 L 635 645 L 635 647 L 637 650 L 637 652 L 639 655 L 639 657 L 641 660 L 641 662 L 643 665 L 643 667 L 645 670 L 645 672 L 647 675 L 647 677 L 650 682 L 650 684 L 652 687 L 652 689 L 654 692 L 654 694 L 659 704 L 660 709 L 663 714 L 664 719 L 666 722 L 666 724 L 668 727 L 668 729 L 670 732 L 670 734 L 673 738 L 673 739 L 677 742 L 679 742 L 680 743 L 687 743 L 688 742 L 690 742 L 692 741 L 696 736 L 696 733 L 697 732 L 696 724 L 693 718 L 693 716 L 691 713 L 691 711 L 688 706 L 687 701 L 685 698 L 685 696 L 683 693 L 683 691 L 681 688 L 680 683 L 677 678 L 677 676 L 675 673 L 675 671 L 673 668 L 673 666 L 671 663 L 671 661 L 669 658 L 669 656 L 667 653 L 667 651 L 664 646 L 664 644 L 661 638 L 661 636 L 659 633 L 659 631 L 656 626 L 655 621 L 653 618 L 653 616 L 651 613 L 651 611 L 649 608 L 649 606 L 647 603 L 647 601 L 645 598 L 645 596 L 643 593 L 643 591 L 640 586 L 639 581 L 636 577 L 636 576 L 635 576 L 631 573 Z M 654 549 L 652 553 L 652 560 L 653 561 L 654 565 L 658 569 L 659 569 L 663 573 L 664 573 L 668 577 L 669 577 L 675 583 L 676 583 L 685 591 L 686 591 L 691 596 L 692 596 L 700 603 L 701 603 L 706 608 L 707 608 L 710 611 L 714 613 L 717 613 L 718 614 L 722 614 L 723 613 L 725 613 L 729 611 L 731 609 L 733 605 L 733 595 L 732 593 L 720 582 L 719 582 L 716 579 L 715 579 L 711 575 L 710 575 L 706 571 L 705 571 L 700 566 L 696 564 L 685 554 L 684 554 L 681 551 L 680 551 L 676 547 L 670 544 L 661 544 L 657 546 Z M 667 503 L 667 507 L 668 508 L 668 511 L 669 513 L 674 518 L 676 519 L 761 519 L 765 517 L 768 514 L 770 510 L 770 500 L 769 498 L 763 492 L 761 491 L 677 491 L 673 493 L 669 497 L 668 499 L 668 502 Z M 799 491 L 795 495 L 793 499 L 793 501 L 792 502 L 792 508 L 793 509 L 793 512 L 794 514 L 799 519 L 803 521 L 806 521 L 807 522 L 816 521 L 820 519 L 823 516 L 823 515 L 826 511 L 826 500 L 825 499 L 825 497 L 821 493 L 821 492 L 815 489 L 804 489 L 803 490 Z M 731 397 L 729 395 L 725 393 L 722 393 L 721 392 L 714 393 L 709 397 L 708 397 L 704 401 L 703 401 L 699 405 L 698 405 L 694 409 L 693 409 L 688 414 L 687 414 L 681 420 L 680 420 L 677 423 L 676 423 L 670 429 L 669 429 L 666 432 L 665 432 L 654 442 L 654 443 L 652 445 L 652 455 L 653 457 L 658 462 L 662 463 L 663 464 L 669 464 L 670 463 L 672 463 L 676 461 L 679 458 L 680 458 L 690 449 L 691 449 L 695 445 L 696 445 L 700 441 L 701 441 L 719 425 L 720 425 L 725 420 L 726 420 L 732 414 L 733 412 L 733 400 L 731 398 Z M 753 355 L 746 361 L 744 365 L 744 377 L 747 381 L 747 382 L 754 387 L 757 387 L 758 388 L 767 387 L 774 382 L 777 376 L 777 365 L 775 361 L 771 357 L 767 355 L 765 355 L 764 354 L 757 354 L 756 355 Z M 572 354 L 571 355 L 569 355 L 565 359 L 564 359 L 562 363 L 562 394 L 565 400 L 566 400 L 568 402 L 572 404 L 580 404 L 584 402 L 588 398 L 589 396 L 589 362 L 588 360 L 584 356 L 582 355 L 580 355 L 579 354 Z M 689 265 L 687 265 L 686 264 L 677 264 L 675 265 L 670 270 L 670 272 L 668 275 L 666 283 L 664 286 L 662 294 L 660 297 L 660 299 L 658 302 L 656 310 L 652 318 L 652 320 L 651 321 L 651 323 L 650 324 L 648 332 L 646 335 L 645 340 L 643 343 L 643 345 L 642 346 L 641 351 L 639 354 L 639 356 L 638 357 L 636 365 L 634 368 L 632 376 L 630 379 L 628 387 L 626 390 L 625 395 L 623 398 L 621 406 L 619 409 L 619 411 L 618 412 L 618 414 L 617 415 L 617 417 L 615 421 L 615 428 L 616 429 L 616 431 L 620 436 L 624 438 L 634 438 L 638 436 L 641 432 L 641 430 L 645 422 L 645 420 L 646 419 L 648 411 L 650 408 L 651 403 L 653 400 L 654 395 L 656 392 L 656 389 L 658 386 L 658 384 L 660 381 L 660 379 L 663 373 L 664 368 L 666 365 L 666 363 L 667 362 L 669 354 L 671 351 L 673 343 L 675 340 L 675 338 L 676 337 L 678 329 L 680 326 L 682 318 L 684 315 L 684 313 L 686 310 L 686 308 L 687 307 L 689 299 L 691 296 L 692 291 L 696 283 L 696 272 L 695 270 Z M 300 233 L 299 234 L 294 234 L 290 236 L 287 236 L 275 242 L 263 253 L 263 254 L 260 257 L 259 260 L 257 262 L 257 264 L 254 269 L 254 271 L 253 272 L 253 276 L 252 277 L 252 296 L 253 297 L 253 300 L 254 301 L 256 309 L 259 313 L 260 316 L 269 326 L 270 326 L 276 332 L 277 332 L 282 337 L 283 337 L 289 343 L 290 343 L 300 352 L 301 352 L 311 361 L 312 361 L 317 366 L 318 366 L 322 370 L 323 370 L 327 374 L 328 374 L 333 379 L 334 379 L 338 383 L 339 383 L 344 388 L 345 388 L 350 393 L 351 393 L 355 397 L 356 397 L 362 403 L 363 403 L 367 407 L 368 407 L 373 412 L 374 412 L 377 415 L 378 415 L 401 435 L 402 435 L 418 449 L 419 449 L 424 454 L 425 454 L 429 458 L 430 458 L 436 464 L 437 464 L 441 468 L 442 468 L 446 472 L 447 472 L 452 477 L 453 477 L 457 481 L 458 481 L 463 486 L 464 486 L 469 491 L 470 491 L 474 495 L 475 495 L 481 501 L 481 504 L 477 509 L 476 509 L 466 519 L 465 519 L 457 527 L 456 527 L 447 536 L 446 536 L 436 546 L 435 546 L 427 554 L 426 554 L 417 563 L 416 563 L 410 569 L 409 569 L 399 579 L 398 579 L 380 596 L 379 596 L 373 602 L 372 602 L 344 628 L 343 628 L 337 634 L 336 634 L 326 644 L 325 644 L 317 652 L 316 652 L 308 660 L 307 660 L 299 668 L 298 668 L 288 678 L 287 678 L 280 685 L 279 685 L 272 692 L 271 692 L 260 703 L 260 704 L 256 709 L 253 715 L 253 717 L 251 721 L 251 724 L 250 725 L 250 746 L 251 747 L 252 753 L 258 765 L 269 777 L 270 777 L 276 782 L 286 787 L 292 788 L 293 789 L 296 789 L 297 790 L 313 790 L 314 789 L 319 789 L 320 788 L 325 787 L 333 783 L 339 778 L 340 778 L 348 770 L 349 770 L 356 763 L 357 763 L 364 756 L 365 756 L 383 739 L 384 739 L 408 717 L 409 717 L 409 716 L 411 715 L 419 707 L 420 707 L 427 700 L 428 700 L 434 694 L 435 694 L 436 692 L 437 692 L 445 684 L 446 684 L 455 675 L 456 675 L 461 670 L 462 670 L 471 661 L 472 661 L 480 653 L 481 653 L 488 646 L 489 646 L 489 645 L 491 643 L 492 643 L 498 637 L 499 637 L 508 628 L 509 628 L 515 622 L 516 622 L 525 613 L 526 613 L 541 599 L 542 599 L 549 592 L 550 592 L 557 585 L 558 585 L 560 582 L 561 582 L 576 568 L 577 568 L 584 561 L 585 561 L 592 554 L 593 554 L 599 548 L 600 548 L 613 536 L 614 536 L 621 529 L 621 528 L 625 523 L 626 519 L 628 516 L 628 513 L 629 512 L 629 496 L 628 495 L 628 492 L 622 481 L 612 471 L 611 471 L 605 465 L 604 465 L 593 455 L 592 455 L 588 451 L 587 451 L 581 445 L 580 445 L 576 441 L 575 441 L 571 437 L 570 437 L 565 432 L 564 432 L 559 427 L 558 427 L 535 407 L 534 407 L 531 404 L 530 404 L 524 398 L 523 398 L 519 394 L 518 394 L 506 383 L 505 383 L 489 369 L 488 369 L 483 364 L 482 364 L 478 360 L 477 360 L 459 344 L 458 344 L 448 335 L 447 335 L 443 331 L 442 331 L 437 326 L 436 326 L 432 322 L 431 322 L 425 316 L 424 316 L 420 312 L 419 312 L 412 305 L 411 305 L 407 301 L 406 301 L 388 285 L 387 285 L 377 276 L 376 276 L 366 267 L 365 267 L 360 262 L 359 262 L 355 258 L 354 258 L 341 246 L 340 246 L 333 240 L 327 237 L 325 237 L 322 235 L 319 235 L 318 234 L 313 234 L 312 233 Z" fill="#FAFAFA" fill-rule="evenodd"/>
</svg>